# xmcd CD database file
#
# Track frame offsets:
#	150
#	22968
#	78885
#	104518
#	134517
#	162797
#	191518
#
# Disc length: 2715 seconds
#
# Revision: 0
# Processed by: cddbd v1.5.1PL0 Copyright (c) Steve Scherf et al.
# Submitted via: CDex 1.51
#
DISCID=4f0a9907
DTITLE=Various Artist - Music With 58 Musicians, Volume One, Disc One
DYEAR=1980
DGENRE=Jazz
TTITLE0=Keith Jarrett and Belonging - Country
TTITLE1=Old and New Dreams - Lonely Woman
TTITLE2=Terje Rypdal Group - Avskjed
TTITLE3=Steve Reich and Musicians - Excerpts from Music for 18 Musicians
TTITLE4=Codona - Codona
TTITLE5=Gary Burton and Chick Corea - Senor Mouse
TTITLE6=John Abercrombie and Ralph Towner - Over And Gone
EXTD=YEAR: 1980
EXTT0=
EXTT1=
EXTT2=
EXTT3=
EXTT4=
EXTT5=
EXTT6=
PLAYORDER=
